<svg width="1440" height="453" viewBox="0 0 1440 453" fill="none" xmlns="http://www.w3.org/2000/svg">
<path d="M33.3155 102.907H29.6676V442.601H33.3155V102.907Z" fill="url(#paint0_linear_3_9878)"/>
<path d="M27.3694 103.09C27.3694 100.828 29.2298 98.9675 31.4915 98.9675C33.7532 98.9675 35.6137 100.828 35.6137 103.09C35.6137 105.351 33.7532 107.212 31.4915 107.212C29.2298 107.212 27.3694 105.388 27.3694 103.09Z" fill="url(#paint1_linear_3_9878)"/>
<path d="M94.9288 72.8486H91.2809V472.66H94.9288V72.8486Z" fill="url(#paint2_linear_3_9878)"/>
<path d="M88.9826 73.0308C88.9826 70.7691 90.8431 68.9087 93.1048 68.9087C95.3665 68.9087 97.2269 70.7691 97.2269 73.0308C97.2269 75.2925 95.3665 77.153 93.1048 77.153C90.8431 77.153 88.9826 75.329 88.9826 73.0308Z" fill="url(#paint3_linear_3_9878)"/>
<path d="M21.4962 35.8594H17.8483V509.614H21.4962V35.8594Z" fill="url(#paint4_linear_3_9878)"/>
<path d="M15.5502 36.0779C15.5502 33.8162 17.4106 31.9558 19.6723 31.9558C21.934 31.9558 23.7945 33.8162 23.7945 36.0779C23.7945 38.3397 21.934 40.2001 19.6723 40.2001C17.4106 40.1636 15.5502 38.3397 15.5502 36.0779Z" fill="url(#paint5_linear_3_9878)"/>
<path d="M43.3472 68.5444H39.6993V476.965H43.3472V68.5444Z" fill="url(#paint6_linear_3_9878)"/>
<path d="M37.4011 68.7266C37.4011 66.4649 39.2616 64.6045 41.5233 64.6045C43.785 64.6045 45.6454 66.4649 45.6454 68.7266C45.6454 70.9883 43.785 72.8488 41.5233 72.8488C39.2616 72.8488 37.4011 71.0248 37.4011 68.7266Z" fill="url(#paint7_linear_3_9878)"/>
<path d="M138.558 112.502H134.91V432.971H138.558V112.502Z" fill="url(#paint8_linear_3_9878)"/>
<path d="M132.648 112.721C132.648 110.459 134.509 108.598 136.77 108.598C139.032 108.598 140.892 110.459 140.892 112.721C140.892 114.982 139.032 116.843 136.77 116.843C134.472 116.806 132.648 114.982 132.648 112.721Z" fill="url(#paint9_linear_3_9878)"/>
<path d="M120.501 113.888H116.853V431.584H120.501V113.888Z" fill="url(#paint10_linear_3_9878)"/>
<path d="M118.677 118.228C120.953 118.228 122.799 116.383 122.799 114.106C122.799 111.83 120.953 109.984 118.677 109.984C116.4 109.984 114.555 111.83 114.555 114.106C114.555 116.383 116.4 118.228 118.677 118.228Z" fill="url(#paint11_linear_3_9878)"/>
<path d="M216.368 75.2935H212.72V470.18H216.368V75.2935Z" fill="url(#paint12_linear_3_9878)"/>
<path d="M210.422 75.512C210.422 73.2503 212.282 71.3899 214.544 71.3899C216.805 71.3899 218.666 73.2503 218.666 75.512C218.666 77.7737 216.805 79.6342 214.544 79.6342C212.246 79.5977 210.422 77.7737 210.422 75.512Z" fill="url(#paint13_linear_3_9878)"/>
<path d="M228.479 99.5518H224.831V445.885H228.479V99.5518Z" fill="url(#paint14_linear_3_9878)"/>
<path d="M222.569 99.7703C222.569 97.5086 224.43 95.6482 226.691 95.6482C228.953 95.6482 230.813 97.5086 230.813 99.7703C230.813 102.032 228.953 103.892 226.691 103.892C224.393 103.892 222.569 102.032 222.569 99.7703Z" fill="url(#paint15_linear_3_9878)"/>
<path d="M176.533 65.5894H172.885V479.883H176.533V65.5894Z" fill="url(#paint16_linear_3_9878)"/>
<path d="M170.586 65.8079C170.586 63.5462 172.447 61.6858 174.709 61.6858C176.97 61.6858 178.831 63.5462 178.831 65.8079C178.831 68.0696 176.97 69.9301 174.709 69.9301C172.447 69.9301 170.586 68.0696 170.586 65.8079Z" fill="url(#paint17_linear_3_9878)"/>
<path d="M288.268 3.93994H284.62V541.569H288.268V3.93994Z" fill="url(#paint18_linear_3_9878)"/>
<path d="M282.322 4.12214C282.322 1.86044 284.182 0 286.444 0C288.706 0 290.566 1.86044 290.566 4.12214C290.566 6.38385 288.706 8.24428 286.444 8.24428C284.182 8.24428 282.322 6.38385 282.322 4.12214Z" fill="url(#paint19_linear_3_9878)"/>
<path d="M300.999 34.1084H297.351V511.365H300.999V34.1084Z" fill="url(#paint20_linear_3_9878)"/>
<path d="M295.053 34.327C295.053 32.0653 296.914 30.2048 299.175 30.2048C301.437 30.2048 303.297 32.0653 303.297 34.327C303.297 36.5887 301.437 38.4491 299.175 38.4491C296.877 38.4126 295.053 36.5887 295.053 34.327Z" fill="url(#paint21_linear_3_9878)"/>
<path d="M332.59 18.5317H328.942V526.978H332.59V18.5317Z" fill="url(#paint22_linear_3_9878)"/>
<path d="M326.644 18.7137C326.644 16.452 328.505 14.5916 330.766 14.5916C333.028 14.5916 334.888 16.452 334.888 18.7137C334.888 20.9754 333.028 22.8358 330.766 22.8358C328.468 22.8358 326.644 21.0119 326.644 18.7137Z" fill="url(#paint23_linear_3_9878)"/>
<path d="M323.215 32.1018H319.567V513.407H323.215V32.1018Z" fill="url(#paint24_linear_3_9878)"/>
<path d="M317.269 32.284C317.269 30.0223 319.129 28.1619 321.391 28.1619C323.653 28.1619 325.513 30.0223 325.513 32.284C325.513 34.5457 323.653 36.4061 321.391 36.4061C319.129 36.4061 317.269 34.5822 317.269 32.284Z" fill="url(#paint25_linear_3_9878)"/>
<path d="M305.304 77.3721H301.656V468.136H305.304V77.3721Z" fill="url(#paint26_linear_3_9878)"/>
<path d="M299.358 77.5543C299.358 75.2926 301.218 73.4321 303.48 73.4321C305.742 73.4321 307.602 75.2926 307.602 77.5543C307.602 79.816 305.742 81.6764 303.48 81.6764C301.182 81.6764 299.358 79.8525 299.358 77.5543Z" fill="url(#paint27_linear_3_9878)"/>
<path d="M336.968 39.1421H333.32V506.33H336.968V39.1421Z" fill="url(#paint28_linear_3_9878)"/>
<path d="M335.144 43.4828C337.42 43.4828 339.266 41.6373 339.266 39.3607C339.266 37.0841 337.42 35.2385 335.144 35.2385C332.867 35.2385 331.022 37.0841 331.022 39.3607C331.022 41.6373 332.867 43.4828 335.144 43.4828Z" fill="url(#paint29_linear_3_9878)"/>
<path d="M345.212 104.731H341.564V440.741H345.212V104.731Z" fill="url(#paint30_linear_3_9878)"/>
<path d="M339.266 104.95C339.266 102.688 341.126 100.828 343.388 100.828C345.65 100.828 347.51 102.688 347.51 104.95C347.51 107.212 345.65 109.072 343.388 109.072C341.09 109.072 339.266 107.212 339.266 104.95Z" fill="url(#paint31_linear_3_9878)"/>
<path d="M422.584 63.1091H418.936V482.364H422.584V63.1091Z" fill="url(#paint32_linear_3_9878)"/>
<path d="M416.638 63.3277C416.638 61.066 418.499 59.2056 420.76 59.2056C423.022 59.2056 424.882 61.066 424.882 63.3277C424.882 65.5894 423.022 67.4499 420.76 67.4499C418.499 67.4499 416.638 65.5894 416.638 63.3277Z" fill="url(#paint33_linear_3_9878)"/>
<path d="M445.858 111.919H442.21V433.555H445.858V111.919Z" fill="url(#paint34_linear_3_9878)"/>
<path d="M439.912 112.137C439.912 109.876 441.772 108.015 444.034 108.015C446.296 108.015 448.156 109.876 448.156 112.137C448.156 114.399 446.296 116.259 444.034 116.259C441.772 116.223 439.912 114.399 439.912 112.137Z" fill="url(#paint35_linear_3_9878)"/>
<path d="M476.354 105.279H472.706V440.23H476.354V105.279Z" fill="url(#paint36_linear_3_9878)"/>
<path d="M474.53 109.583C476.807 109.583 478.653 107.738 478.653 105.461C478.653 103.185 476.807 101.339 474.53 101.339C472.254 101.339 470.408 103.185 470.408 105.461C470.408 107.738 472.254 109.583 474.53 109.583Z" fill="url(#paint37_linear_3_9878)"/>
<path d="M525.273 50.9612H521.625V494.511H525.273V50.9612Z" fill="url(#paint38_linear_3_9878)"/>
<path d="M519.327 51.1797C519.327 48.918 521.151 47.0576 523.449 47.0576C525.711 47.0576 527.571 48.918 527.571 51.1797C527.571 53.4415 525.711 55.3019 523.449 55.3019C521.187 55.2654 519.327 53.4415 519.327 51.1797Z" fill="url(#paint39_linear_3_9878)"/>
<path d="M571.383 5.3623H567.735V540.11H571.383V5.3623Z" fill="url(#paint40_linear_3_9878)"/>
<path d="M569.559 9.70302C571.835 9.70302 573.681 7.85748 573.681 5.58088C573.681 3.30429 571.835 1.45874 569.559 1.45874C567.282 1.45874 565.436 3.30429 565.436 5.58088C565.436 7.85748 567.282 9.70302 569.559 9.70302Z" fill="url(#paint41_linear_3_9878)"/>
<path d="M582.545 69.1643H578.897V476.308H582.545V69.1643Z" fill="url(#paint42_linear_3_9878)"/>
<path d="M576.599 69.3829C576.599 67.1212 578.459 65.2607 580.721 65.2607C582.983 65.2607 584.843 67.1212 584.843 69.3829C584.843 71.6446 582.983 73.505 580.721 73.505C578.459 73.4686 576.599 71.6446 576.599 69.3829Z" fill="url(#paint43_linear_3_9878)"/>
<path d="M592.686 36.7346H589.038V508.774H592.686V36.7346Z" fill="url(#paint44_linear_3_9878)"/>
<path d="M586.777 36.9168C586.777 34.6551 588.637 32.7947 590.899 32.7947C593.161 32.7947 595.021 34.6186 595.021 36.9168C595.021 39.1785 593.161 41.039 590.899 41.039C588.601 41.039 586.777 39.215 586.777 36.9168Z" fill="url(#paint45_linear_3_9878)"/>
<path d="M599.471 96.4514H595.824V449.059H599.471V96.4514Z" fill="url(#paint46_linear_3_9878)"/>
<path d="M593.525 96.6336C593.525 94.3719 595.386 92.5115 597.648 92.5115C599.909 92.5115 601.77 94.3719 601.77 96.6336C601.77 98.8953 599.909 100.756 597.648 100.756C595.386 100.756 593.525 98.9318 593.525 96.6336Z" fill="url(#paint47_linear_3_9878)"/>
<path d="M658.093 11.6741H654.445V533.836H658.093V11.6741Z" fill="url(#paint48_linear_3_9878)"/>
<path d="M656.269 15.9784C658.546 15.9784 660.392 14.1329 660.392 11.8563C660.392 9.57967 658.546 7.73413 656.269 7.73413C653.993 7.73413 652.147 9.57967 652.147 11.8563C652.147 14.1329 653.993 15.9784 656.269 15.9784Z" fill="url(#paint49_linear_3_9878)"/>
<path d="M669.913 83.8289H666.265V461.68H669.913V83.8289Z" fill="url(#paint50_linear_3_9878)"/>
<path d="M663.967 84.011C663.967 81.7493 665.827 79.8889 668.089 79.8889C670.35 79.8889 672.211 81.7493 672.211 84.011C672.211 86.2728 670.35 88.1332 668.089 88.1332C665.791 88.1332 663.967 86.2728 663.967 84.011Z" fill="url(#paint51_linear_3_9878)"/>
<path d="M716.132 109.583H712.484V435.926H716.132V109.583Z" fill="url(#paint52_linear_3_9878)"/>
<path d="M710.186 109.765C710.186 107.504 712.046 105.643 714.308 105.643C716.569 105.643 718.43 107.504 718.43 109.765C718.43 112.027 716.569 113.888 714.308 113.888C712.046 113.888 710.186 112.064 710.186 109.765Z" fill="url(#paint53_linear_3_9878)"/>
<path d="M671.153 5.39893H667.505V540.073H671.153V5.39893Z" fill="url(#paint54_linear_3_9878)"/>
<path d="M669.329 9.73964C671.606 9.73964 673.451 7.8941 673.451 5.61751C673.451 3.34091 671.606 1.49536 669.329 1.49536C667.052 1.49536 665.207 3.34091 665.207 5.61751C665.207 7.8941 667.052 9.73964 669.329 9.73964Z" fill="url(#paint55_linear_3_9878)"/>
<path d="M730.723 59.2056H727.075V486.303H730.723V59.2056Z" fill="url(#paint56_linear_3_9878)"/>
<path d="M728.899 63.5099C731.176 63.5099 733.022 61.6644 733.022 59.3878C733.022 57.1112 731.176 55.2656 728.899 55.2656C726.623 55.2656 724.777 57.1112 724.777 59.3878C724.777 61.6644 726.623 63.5099 728.899 63.5099Z" fill="url(#paint57_linear_3_9878)"/>
<path d="M785.916 52.7488H782.268V492.76H785.916V52.7488Z" fill="url(#paint58_linear_3_9878)"/>
<path d="M779.97 52.9307C779.97 50.669 781.831 48.8086 784.092 48.8086C786.354 48.8086 788.214 50.669 788.214 52.9307C788.214 55.1924 786.354 57.0529 784.092 57.0529C781.831 57.0529 779.97 55.2289 779.97 52.9307Z" fill="url(#paint59_linear_3_9878)"/>
<path d="M817.033 31.1533H813.385V514.283H817.033V31.1533Z" fill="url(#paint60_linear_3_9878)"/>
<path d="M811.123 31.3719C811.123 29.1102 812.984 27.2498 815.245 27.2498C817.507 27.2498 819.368 29.1102 819.368 31.3719C819.368 33.6336 817.507 35.494 815.245 35.494C812.947 35.494 811.123 33.6336 811.123 31.3719Z" fill="url(#paint61_linear_3_9878)"/>
<path d="M746.409 19.2976H742.761V526.138H746.409V19.2976Z" fill="url(#paint62_linear_3_9878)"/>
<path d="M740.463 19.5162C740.463 17.2545 742.324 15.394 744.585 15.394C746.847 15.394 748.707 17.2545 748.707 19.5162C748.707 21.7779 746.847 23.6383 744.585 23.6383C742.324 23.6383 740.463 21.7779 740.463 19.5162Z" fill="url(#paint63_linear_3_9878)"/>
<path d="M818.456 111.152H814.808V434.284H818.456V111.152Z" fill="url(#paint64_linear_3_9878)"/>
<path d="M812.546 111.37C812.546 109.109 814.406 107.248 816.668 107.248C818.93 107.248 820.79 109.109 820.79 111.37C820.79 113.632 818.93 115.493 816.668 115.493C814.37 115.493 812.546 113.632 812.546 111.37Z" fill="url(#paint65_linear_3_9878)"/>
<path d="M807.585 81.7139H803.937V463.76H807.585V81.7139Z" fill="url(#paint66_linear_3_9878)"/>
<path d="M801.675 81.9324C801.675 79.6707 803.536 77.8103 805.797 77.8103C808.059 77.8103 809.919 79.6707 809.919 81.9324C809.919 84.1941 808.059 86.0546 805.797 86.0546C803.499 86.0181 801.675 84.1941 801.675 81.9324Z" fill="url(#paint67_linear_3_9878)"/>
<path d="M881.2 17.7659H877.552V527.671H881.2V17.7659Z" fill="url(#paint68_linear_3_9878)"/>
<path d="M875.29 17.9844C875.29 15.7227 877.15 13.8623 879.412 13.8623C881.674 13.8623 883.534 15.7227 883.534 17.9844C883.534 20.2461 881.674 22.1066 879.412 22.1066C877.114 22.1066 875.29 20.2461 875.29 17.9844Z" fill="url(#paint69_linear_3_9878)"/>
<path d="M845.012 115.384H841.365V430.126H845.012V115.384Z" fill="url(#paint70_linear_3_9878)"/>
<path d="M839.066 115.566C839.066 113.304 840.927 111.444 843.188 111.444C845.45 111.444 847.31 113.304 847.31 115.566C847.31 117.828 845.45 119.688 843.188 119.688C840.927 119.688 839.066 117.864 839.066 115.566Z" fill="url(#paint71_linear_3_9878)"/>
<path d="M909.617 79.415H905.969V466.057H909.617V79.415Z" fill="url(#paint72_linear_3_9878)"/>
<path d="M903.671 79.6339C903.671 77.3722 905.531 75.5117 907.793 75.5117C910.055 75.5117 911.915 77.3722 911.915 79.6339C911.915 81.8956 910.055 83.756 907.793 83.756C905.531 83.756 903.671 81.8956 903.671 79.6339Z" fill="url(#paint73_linear_3_9878)"/>
<path d="M916.694 86.3101H913.046V459.2H916.694V86.3101Z" fill="url(#paint74_linear_3_9878)"/>
<path d="M910.784 86.4922C910.784 84.2305 912.645 82.3701 914.906 82.3701C917.168 82.3701 919.029 84.2305 919.029 86.4922C919.029 88.754 917.168 90.6144 914.906 90.6144C912.608 90.6144 910.784 88.7904 910.784 86.4922Z" fill="url(#paint75_linear_3_9878)"/>
<path d="M992.753 35.9324H989.105V509.541H992.753V35.9324Z" fill="url(#paint76_linear_3_9878)"/>
<path d="M990.929 40.2731C993.206 40.2731 995.051 38.4275 995.051 36.151C995.051 33.8744 993.206 32.0288 990.929 32.0288C988.652 32.0288 986.807 33.8744 986.807 36.151C986.807 38.4275 988.652 40.2731 990.929 40.2731Z" fill="url(#paint77_linear_3_9878)"/>
<path d="M947.227 7.3689H943.579V538.14H947.227V7.3689Z" fill="url(#paint78_linear_3_9878)"/>
<path d="M941.281 7.55109C941.281 5.28939 943.141 3.42896 945.403 3.42896C947.665 3.42896 949.525 5.28939 949.525 7.55109C949.525 9.8128 947.665 11.6732 945.403 11.6732C943.141 11.6732 941.281 9.84928 941.281 7.55109Z" fill="url(#paint79_linear_3_9878)"/>
<path d="M989.105 14.7742H985.457V530.698H989.105V14.7742Z" fill="url(#paint80_linear_3_9878)"/>
<path d="M983.159 14.9928C983.159 12.731 985.019 10.8706 987.281 10.8706C989.543 10.8706 991.403 12.731 991.403 14.9928C991.403 17.2545 989.543 19.1149 987.281 19.1149C985.019 19.1149 983.159 17.2545 983.159 14.9928Z" fill="url(#paint81_linear_3_9878)"/>
<path d="M1093.4 46.4014H1089.75V499.071H1093.4V46.4014Z" fill="url(#paint82_linear_3_9878)"/>
<path d="M1087.45 46.6199C1087.45 44.3582 1089.31 42.4978 1091.57 42.4978C1093.84 42.4978 1095.7 44.3582 1095.7 46.6199C1095.7 48.8816 1093.84 50.7421 1091.57 50.7421C1089.31 50.7056 1087.45 48.8816 1087.45 46.6199Z" fill="url(#paint83_linear_3_9878)"/>
<path d="M1088.95 81.6406H1085.3V463.832H1088.95V81.6406Z" fill="url(#paint84_linear_3_9878)"/>
<path d="M1083.04 81.8594C1083.04 79.5977 1084.9 77.7373 1087.16 77.7373C1089.42 77.7373 1091.28 79.5977 1091.28 81.8594C1091.28 84.1211 1089.42 85.9816 1087.16 85.9816C1084.9 85.9816 1083.04 84.1211 1083.04 81.8594Z" fill="url(#paint85_linear_3_9878)"/>
<path d="M1146.15 89.1912H1142.5V456.281H1146.15V89.1912Z" fill="url(#paint86_linear_3_9878)"/>
<path d="M1140.2 89.41C1140.2 87.1483 1142.03 85.2878 1144.32 85.2878C1146.59 85.2878 1148.45 87.1483 1148.45 89.41C1148.45 91.6717 1146.59 93.5321 1144.32 93.5321C1142.06 93.5321 1140.2 91.6717 1140.2 89.41Z" fill="url(#paint87_linear_3_9878)"/>
<path d="M1092.45 45.5989H1088.8V499.873H1092.45V45.5989Z" fill="url(#paint88_linear_3_9878)"/>
<path d="M1086.5 45.8175C1086.5 43.5558 1088.36 41.6953 1090.63 41.6953C1092.89 41.6953 1094.75 43.5558 1094.75 45.8175C1094.75 48.0792 1092.89 49.9396 1090.63 49.9396C1088.36 49.9396 1086.5 48.0792 1086.5 45.8175Z" fill="url(#paint89_linear_3_9878)"/>
<path d="M1113.61 57.054H1109.96V488.383H1113.61V57.054Z" fill="url(#paint90_linear_3_9878)"/>
<path d="M1107.66 57.2725C1107.66 55.0108 1109.52 53.1504 1111.78 53.1504C1114.05 53.1504 1115.91 54.9744 1115.91 57.2725C1115.91 59.5342 1114.05 61.3947 1111.78 61.3947C1109.49 61.3947 1107.66 59.5342 1107.66 57.2725Z" fill="url(#paint91_linear_3_9878)"/>
<path d="M1169.71 81.3486H1166.07V464.161H1169.71V81.3486Z" fill="url(#paint92_linear_3_9878)"/>
<path d="M1163.77 81.5308C1163.77 79.2691 1165.63 77.4087 1167.89 77.4087C1170.15 77.4087 1172.01 79.2691 1172.01 81.5308C1172.01 83.7925 1170.15 85.653 1167.89 85.653C1165.59 85.653 1163.77 83.829 1163.77 81.5308Z" fill="url(#paint93_linear_3_9878)"/>
<path d="M1149.39 76.5693H1145.75V468.902H1149.39V76.5693Z" fill="url(#paint94_linear_3_9878)"/>
<path d="M1143.45 76.7881C1143.45 74.5264 1145.31 72.666 1147.57 72.666C1149.83 72.666 1151.69 74.5264 1151.69 76.7881C1151.69 79.0499 1149.83 80.9103 1147.57 80.9103C1145.31 80.8738 1143.45 79.0499 1143.45 76.7881Z" fill="url(#paint95_linear_3_9878)"/>
<path d="M1173.4 7.77051H1169.75V537.703H1173.4V7.77051Z" fill="url(#paint96_linear_3_9878)"/>
<path d="M1167.45 7.98908C1167.45 5.72738 1169.31 3.86694 1171.57 3.86694C1173.84 3.86694 1175.7 5.72738 1175.7 7.98908C1175.7 10.2508 1173.84 12.1112 1171.57 12.1112C1169.31 12.0747 1167.45 10.2508 1167.45 7.98908Z" fill="url(#paint97_linear_3_9878)"/>
<path d="M1232.86 103.893H1229.21V441.616H1232.86V103.893Z" fill="url(#paint98_linear_3_9878)"/>
<path d="M1226.91 104.075C1226.91 101.813 1228.77 99.9524 1231.03 99.9524C1233.3 99.9524 1235.16 101.813 1235.16 104.075C1235.16 106.336 1233.3 108.197 1231.03 108.197C1228.74 108.197 1226.91 106.373 1226.91 104.075Z" fill="url(#paint99_linear_3_9878)"/>
<path d="M1304.72 112.976H1301.07V432.496H1304.72V112.976Z" fill="url(#paint100_linear_3_9878)"/>
<path d="M1298.81 113.194C1298.81 110.933 1300.67 109.072 1302.93 109.072C1305.2 109.072 1307.06 110.933 1307.06 113.194C1307.06 115.456 1305.2 117.317 1302.93 117.317C1300.64 117.28 1298.81 115.456 1298.81 113.194Z" fill="url(#paint101_linear_3_9878)"/>
<path d="M1311.84 18.8237H1308.19V526.65H1311.84V18.8237Z" fill="url(#paint102_linear_3_9878)"/>
<path d="M1305.89 19.0426C1305.89 16.7808 1307.75 14.9204 1310.01 14.9204C1312.27 14.9204 1314.13 16.7808 1314.13 19.0426C1314.13 21.3043 1312.27 23.1647 1310.01 23.1647C1307.75 23.1647 1305.89 21.3043 1305.89 19.0426Z" fill="url(#paint103_linear_3_9878)"/>
<path d="M1273.82 99.4055H1270.18V446.03H1273.82V99.4055Z" fill="url(#paint104_linear_3_9878)"/>
<path d="M1267.88 99.6243C1267.88 97.3626 1269.74 95.5022 1272 95.5022C1274.26 95.5022 1276.12 97.3626 1276.12 99.6243C1276.12 101.886 1274.26 103.746 1272 103.746C1269.7 103.746 1267.88 101.886 1267.88 99.6243Z" fill="url(#paint105_linear_3_9878)"/>
<path d="M1342.37 34.8743H1338.72V510.598H1342.37V34.8743Z" fill="url(#paint106_linear_3_9878)"/>
<path d="M1336.46 35.0928C1336.46 32.8311 1338.32 30.9707 1340.58 30.9707C1342.84 30.9707 1344.7 32.7947 1344.7 35.0928C1344.7 37.3545 1342.84 39.215 1340.58 39.215C1338.32 39.215 1336.46 37.3545 1336.46 35.0928Z" fill="url(#paint107_linear_3_9878)"/>
<path d="M1369.76 14.7742H1366.12V530.698H1369.76V14.7742Z" fill="url(#paint108_linear_3_9878)"/>
<path d="M1363.82 14.9928C1363.82 12.731 1365.68 10.8706 1367.94 10.8706C1370.2 10.8706 1372.06 12.731 1372.06 14.9928C1372.06 17.2545 1370.2 19.1149 1367.94 19.1149C1365.68 19.1149 1363.82 17.2545 1363.82 14.9928Z" fill="url(#paint109_linear_3_9878)"/>
<path d="M1359.33 74.345H1355.68V471.092H1359.33V74.345Z" fill="url(#paint110_linear_3_9878)"/>
<path d="M1353.42 74.5635C1353.42 72.3018 1355.28 70.4414 1357.54 70.4414C1359.81 70.4414 1361.67 72.3018 1361.67 74.5635C1361.67 76.8252 1359.81 78.6857 1357.54 78.6857C1355.25 78.6857 1353.42 76.8252 1353.42 74.5635Z" fill="url(#paint111_linear_3_9878)"/>
<path d="M1367.47 86.4553H1363.82V459.017H1367.47V86.4553Z" fill="url(#paint112_linear_3_9878)"/>
<path d="M1361.52 86.6739C1361.52 84.4122 1363.38 82.5518 1365.64 82.5518C1367.9 82.5518 1369.76 84.4122 1369.76 86.6739C1369.76 88.9356 1367.94 90.796 1365.64 90.796C1363.34 90.796 1361.52 88.9356 1361.52 86.6739Z" fill="url(#paint113_linear_3_9878)"/>
<path d="M1438.53 20.2457C1438.53 17.984 1440.39 16.1235 1442.65 16.1235C1444.91 16.1235 1446.77 17.9475 1446.77 20.2457C1446.77 22.5439 1444.91 24.3678 1442.65 24.3678C1440.35 24.3678 1438.53 22.5439 1438.53 20.2457Z" fill="url(#paint114_linear_3_9878)"/>
<defs>
<linearGradient id="paint0_linear_3_9878" x1="31.4992" y1="442.628" x2="31.4992" y2="99.6857" gradientUnits="userSpaceOnUse">
<stop stop-color="#0F1145" stop-opacity="0"/>
<stop offset="1" stop-color="white" stop-opacity="0.07"/>
</linearGradient>
<linearGradient id="paint1_linear_3_9878" x1="31.5089" y1="107.212" x2="31.5089" y2="98.8893" gradientUnits="userSpaceOnUse">
<stop stop-color="#0F1145" stop-opacity="0"/>
<stop offset="1" stop-color="white" stop-opacity="0.07"/>
</linearGradient>
<linearGradient id="paint2_linear_3_9878" x1="93.1125" y1="472.691" x2="93.1125" y2="69.0567" gradientUnits="userSpaceOnUse">
<stop stop-color="#0F1145" stop-opacity="0"/>
<stop offset="1" stop-color="white" stop-opacity="0.07"/>
</linearGradient>
<linearGradient id="paint3_linear_3_9878" x1="93.1221" y1="77.1536" x2="93.1221" y2="68.8305" gradientUnits="userSpaceOnUse">
<stop stop-color="#0F1145" stop-opacity="0"/>
<stop offset="1" stop-color="white" stop-opacity="0.07"/>
</linearGradient>
<linearGradient id="paint4_linear_3_9878" x1="19.68" y1="509.651" x2="19.68" y2="31.3661" gradientUnits="userSpaceOnUse">
<stop stop-color="#0F1145" stop-opacity="0"/>
<stop offset="1" stop-color="white" stop-opacity="0.07"/>
</linearGradient>
<linearGradient id="paint5_linear_3_9878" x1="19.6896" y1="40.2007" x2="19.6896" y2="31.8776" gradientUnits="userSpaceOnUse">
<stop stop-color="#0F1145" stop-opacity="0"/>
<stop offset="1" stop-color="white" stop-opacity="0.07"/>
</linearGradient>
<linearGradient id="paint6_linear_3_9878" x1="41.5309" y1="476.997" x2="41.5309" y2="64.6708" gradientUnits="userSpaceOnUse">
<stop stop-color="#0F1145" stop-opacity="0"/>
<stop offset="1" stop-color="white" stop-opacity="0.07"/>
</linearGradient>
<linearGradient id="paint7_linear_3_9878" x1="41.5406" y1="72.8494" x2="41.5406" y2="64.5263" gradientUnits="userSpaceOnUse">
<stop stop-color="#0F1145" stop-opacity="0"/>
<stop offset="1" stop-color="white" stop-opacity="0.07"/>
</linearGradient>
<linearGradient id="paint8_linear_3_9878" x1="136.741" y1="432.996" x2="136.741" y2="109.462" gradientUnits="userSpaceOnUse">
<stop stop-color="#0F1145" stop-opacity="0"/>
<stop offset="1" stop-color="white" stop-opacity="0.07"/>
</linearGradient>
<linearGradient id="paint9_linear_3_9878" x1="136.788" y1="116.843" x2="136.788" y2="108.52" gradientUnits="userSpaceOnUse">
<stop stop-color="#0F1145" stop-opacity="0"/>
<stop offset="1" stop-color="white" stop-opacity="0.07"/>
</linearGradient>
<linearGradient id="paint10_linear_3_9878" x1="118.684" y1="431.609" x2="118.684" y2="110.875" gradientUnits="userSpaceOnUse">
<stop stop-color="#0F1145" stop-opacity="0"/>
<stop offset="1" stop-color="white" stop-opacity="0.07"/>
</linearGradient>
<linearGradient id="paint11_linear_3_9878" x1="118.694" y1="118.229" x2="118.694" y2="109.906" gradientUnits="userSpaceOnUse">
<stop stop-color="#0F1145" stop-opacity="0"/>
<stop offset="1" stop-color="white" stop-opacity="0.07"/>
</linearGradient>
<linearGradient id="paint12_linear_3_9878" x1="214.551" y1="470.211" x2="214.551" y2="71.5482" gradientUnits="userSpaceOnUse">
<stop stop-color="#0F1145" stop-opacity="0"/>
<stop offset="1" stop-color="white" stop-opacity="0.07"/>
</linearGradient>
<linearGradient id="paint13_linear_3_9878" x1="214.561" y1="79.6348" x2="214.561" y2="71.3117" gradientUnits="userSpaceOnUse">
<stop stop-color="#0F1145" stop-opacity="0"/>
<stop offset="1" stop-color="white" stop-opacity="0.07"/>
</linearGradient>
<linearGradient id="paint14_linear_3_9878" x1="226.662" y1="445.912" x2="226.662" y2="96.267" gradientUnits="userSpaceOnUse">
<stop stop-color="#0F1145" stop-opacity="0"/>
<stop offset="1" stop-color="white" stop-opacity="0.07"/>
</linearGradient>
<linearGradient id="paint15_linear_3_9878" x1="226.709" y1="103.893" x2="226.709" y2="95.57" gradientUnits="userSpaceOnUse">
<stop stop-color="#0F1145" stop-opacity="0"/>
<stop offset="1" stop-color="white" stop-opacity="0.07"/>
</linearGradient>
<linearGradient id="paint16_linear_3_9878" x1="174.716" y1="479.915" x2="174.716" y2="61.66" gradientUnits="userSpaceOnUse">
<stop stop-color="#0F1145" stop-opacity="0"/>
<stop offset="1" stop-color="white" stop-opacity="0.07"/>
</linearGradient>
<linearGradient id="paint17_linear_3_9878" x1="174.726" y1="69.9307" x2="174.726" y2="61.6076" gradientUnits="userSpaceOnUse">
<stop stop-color="#0F1145" stop-opacity="0"/>
<stop offset="1" stop-color="white" stop-opacity="0.07"/>
</linearGradient>
<linearGradient id="paint18_linear_3_9878" x1="286.452" y1="541.612" x2="286.452" y2="-1.15917" gradientUnits="userSpaceOnUse">
<stop stop-color="#0F1145" stop-opacity="0"/>
<stop offset="1" stop-color="white" stop-opacity="0.07"/>
</linearGradient>
<linearGradient id="paint19_linear_3_9878" x1="286.461" y1="8.24493" x2="286.461" y2="-0.0781923" gradientUnits="userSpaceOnUse">
<stop stop-color="#0F1145" stop-opacity="0"/>
<stop offset="1" stop-color="white" stop-opacity="0.07"/>
</linearGradient>
<linearGradient id="paint20_linear_3_9878" x1="299.183" y1="511.402" x2="299.183" y2="29.5819" gradientUnits="userSpaceOnUse">
<stop stop-color="#0F1145" stop-opacity="0"/>
<stop offset="1" stop-color="white" stop-opacity="0.07"/>
</linearGradient>
<linearGradient id="paint21_linear_3_9878" x1="299.193" y1="38.4498" x2="299.193" y2="30.1266" gradientUnits="userSpaceOnUse">
<stop stop-color="#0F1145" stop-opacity="0"/>
<stop offset="1" stop-color="white" stop-opacity="0.07"/>
</linearGradient>
<linearGradient id="paint22_linear_3_9878" x1="330.774" y1="527.018" x2="330.774" y2="13.7094" gradientUnits="userSpaceOnUse">
<stop stop-color="#0F1145" stop-opacity="0"/>
<stop offset="1" stop-color="white" stop-opacity="0.07"/>
</linearGradient>
<linearGradient id="paint23_linear_3_9878" x1="330.784" y1="22.8365" x2="330.784" y2="14.5134" gradientUnits="userSpaceOnUse">
<stop stop-color="#0F1145" stop-opacity="0"/>
<stop offset="1" stop-color="white" stop-opacity="0.07"/>
</linearGradient>
<linearGradient id="paint24_linear_3_9878" x1="321.399" y1="513.445" x2="321.399" y2="27.5369" gradientUnits="userSpaceOnUse">
<stop stop-color="#0F1145" stop-opacity="0"/>
<stop offset="1" stop-color="white" stop-opacity="0.07"/>
</linearGradient>
<linearGradient id="paint25_linear_3_9878" x1="321.408" y1="36.4068" x2="321.408" y2="28.0837" gradientUnits="userSpaceOnUse">
<stop stop-color="#0F1145" stop-opacity="0"/>
<stop offset="1" stop-color="white" stop-opacity="0.07"/>
</linearGradient>
<linearGradient id="paint26_linear_3_9878" x1="303.488" y1="468.167" x2="303.488" y2="73.6659" gradientUnits="userSpaceOnUse">
<stop stop-color="#0F1145" stop-opacity="0"/>
<stop offset="1" stop-color="white" stop-opacity="0.07"/>
</linearGradient>
<linearGradient id="paint27_linear_3_9878" x1="303.497" y1="81.6771" x2="303.497" y2="73.3539" gradientUnits="userSpaceOnUse">
<stop stop-color="#0F1145" stop-opacity="0"/>
<stop offset="1" stop-color="white" stop-opacity="0.07"/>
</linearGradient>
<linearGradient id="paint28_linear_3_9878" x1="335.151" y1="506.367" x2="335.151" y2="34.7111" gradientUnits="userSpaceOnUse">
<stop stop-color="#0F1145" stop-opacity="0"/>
<stop offset="1" stop-color="white" stop-opacity="0.07"/>
</linearGradient>
<linearGradient id="paint29_linear_3_9878" x1="335.161" y1="43.4835" x2="335.161" y2="35.1603" gradientUnits="userSpaceOnUse">
<stop stop-color="#0F1145" stop-opacity="0"/>
<stop offset="1" stop-color="white" stop-opacity="0.07"/>
</linearGradient>
<linearGradient id="paint30_linear_3_9878" x1="343.396" y1="440.767" x2="343.396" y2="101.545" gradientUnits="userSpaceOnUse">
<stop stop-color="#0F1145" stop-opacity="0"/>
<stop offset="1" stop-color="white" stop-opacity="0.07"/>
</linearGradient>
<linearGradient id="paint31_linear_3_9878" x1="343.405" y1="109.073" x2="343.405" y2="100.75" gradientUnits="userSpaceOnUse">
<stop stop-color="#0F1145" stop-opacity="0"/>
<stop offset="1" stop-color="white" stop-opacity="0.07"/>
</linearGradient>
<linearGradient id="paint32_linear_3_9878" x1="420.768" y1="482.397" x2="420.768" y2="59.1327" gradientUnits="userSpaceOnUse">
<stop stop-color="#0F1145" stop-opacity="0"/>
<stop offset="1" stop-color="white" stop-opacity="0.07"/>
</linearGradient>
<linearGradient id="paint33_linear_3_9878" x1="420.778" y1="67.4505" x2="420.778" y2="59.1274" gradientUnits="userSpaceOnUse">
<stop stop-color="#0F1145" stop-opacity="0"/>
<stop offset="1" stop-color="white" stop-opacity="0.07"/>
</linearGradient>
<linearGradient id="paint34_linear_3_9878" x1="444.042" y1="433.581" x2="444.042" y2="108.868" gradientUnits="userSpaceOnUse">
<stop stop-color="#0F1145" stop-opacity="0"/>
<stop offset="1" stop-color="white" stop-opacity="0.07"/>
</linearGradient>
<linearGradient id="paint35_linear_3_9878" x1="444.051" y1="116.26" x2="444.051" y2="107.937" gradientUnits="userSpaceOnUse">
<stop stop-color="#0F1145" stop-opacity="0"/>
<stop offset="1" stop-color="white" stop-opacity="0.07"/>
</linearGradient>
<linearGradient id="paint36_linear_3_9878" x1="474.538" y1="440.257" x2="474.538" y2="102.102" gradientUnits="userSpaceOnUse">
<stop stop-color="#0F1145" stop-opacity="0"/>
<stop offset="1" stop-color="white" stop-opacity="0.07"/>
</linearGradient>
<linearGradient id="paint37_linear_3_9878" x1="474.548" y1="109.584" x2="474.548" y2="101.261" gradientUnits="userSpaceOnUse">
<stop stop-color="#0F1145" stop-opacity="0"/>
<stop offset="1" stop-color="white" stop-opacity="0.07"/>
</linearGradient>
<linearGradient id="paint38_linear_3_9878" x1="523.457" y1="494.546" x2="523.457" y2="46.7544" gradientUnits="userSpaceOnUse">
<stop stop-color="#0F1145" stop-opacity="0"/>
<stop offset="1" stop-color="white" stop-opacity="0.07"/>
</linearGradient>
<linearGradient id="paint39_linear_3_9878" x1="523.466" y1="55.3025" x2="523.466" y2="46.9794" gradientUnits="userSpaceOnUse">
<stop stop-color="#0F1145" stop-opacity="0"/>
<stop offset="1" stop-color="white" stop-opacity="0.07"/>
</linearGradient>
<linearGradient id="paint40_linear_3_9878" x1="569.566" y1="540.152" x2="569.566" y2="0.29053" gradientUnits="userSpaceOnUse">
<stop stop-color="#0F1145" stop-opacity="0"/>
<stop offset="1" stop-color="white" stop-opacity="0.07"/>
</linearGradient>
<linearGradient id="paint41_linear_3_9878" x1="569.576" y1="9.70367" x2="569.576" y2="1.38055" gradientUnits="userSpaceOnUse">
<stop stop-color="#0F1145" stop-opacity="0"/>
<stop offset="1" stop-color="white" stop-opacity="0.07"/>
</linearGradient>
<linearGradient id="paint42_linear_3_9878" x1="580.729" y1="476.34" x2="580.729" y2="65.3028" gradientUnits="userSpaceOnUse">
<stop stop-color="#0F1145" stop-opacity="0"/>
<stop offset="1" stop-color="white" stop-opacity="0.07"/>
</linearGradient>
<linearGradient id="paint43_linear_3_9878" x1="580.738" y1="73.5057" x2="580.738" y2="65.1825" gradientUnits="userSpaceOnUse">
<stop stop-color="#0F1145" stop-opacity="0"/>
<stop offset="1" stop-color="white" stop-opacity="0.07"/>
</linearGradient>
<linearGradient id="paint44_linear_3_9878" x1="590.87" y1="508.812" x2="590.87" y2="32.2576" gradientUnits="userSpaceOnUse">
<stop stop-color="#0F1145" stop-opacity="0"/>
<stop offset="1" stop-color="white" stop-opacity="0.07"/>
</linearGradient>
<linearGradient id="paint45_linear_3_9878" x1="590.916" y1="41.0396" x2="590.916" y2="32.7165" gradientUnits="userSpaceOnUse">
<stop stop-color="#0F1145" stop-opacity="0"/>
<stop offset="1" stop-color="white" stop-opacity="0.07"/>
</linearGradient>
<linearGradient id="paint46_linear_3_9878" x1="597.655" y1="449.086" x2="597.655" y2="93.1071" gradientUnits="userSpaceOnUse">
<stop stop-color="#0F1145" stop-opacity="0"/>
<stop offset="1" stop-color="white" stop-opacity="0.07"/>
</linearGradient>
<linearGradient id="paint47_linear_3_9878" x1="597.665" y1="100.756" x2="597.665" y2="92.4333" gradientUnits="userSpaceOnUse">
<stop stop-color="#0F1145" stop-opacity="0"/>
<stop offset="1" stop-color="white" stop-opacity="0.07"/>
</linearGradient>
<linearGradient id="paint48_linear_3_9878" x1="656.277" y1="533.878" x2="656.277" y2="6.72166" gradientUnits="userSpaceOnUse">
<stop stop-color="#0F1145" stop-opacity="0"/>
<stop offset="1" stop-color="white" stop-opacity="0.07"/>
</linearGradient>
<linearGradient id="paint49_linear_3_9878" x1="656.287" y1="15.9791" x2="656.287" y2="7.65594" gradientUnits="userSpaceOnUse">
<stop stop-color="#0F1145" stop-opacity="0"/>
<stop offset="1" stop-color="white" stop-opacity="0.07"/>
</linearGradient>
<linearGradient id="paint50_linear_3_9878" x1="668.096" y1="461.709" x2="668.096" y2="80.2452" gradientUnits="userSpaceOnUse">
<stop stop-color="#0F1145" stop-opacity="0"/>
<stop offset="1" stop-color="white" stop-opacity="0.07"/>
</linearGradient>
<linearGradient id="paint51_linear_3_9878" x1="668.106" y1="88.1338" x2="668.106" y2="79.8107" gradientUnits="userSpaceOnUse">
<stop stop-color="#0F1145" stop-opacity="0"/>
<stop offset="1" stop-color="white" stop-opacity="0.07"/>
</linearGradient>
<linearGradient id="paint52_linear_3_9878" x1="714.315" y1="435.951" x2="714.315" y2="106.488" gradientUnits="userSpaceOnUse">
<stop stop-color="#0F1145" stop-opacity="0"/>
<stop offset="1" stop-color="white" stop-opacity="0.07"/>
</linearGradient>
<linearGradient id="paint53_linear_3_9878" x1="714.325" y1="113.888" x2="714.325" y2="105.565" gradientUnits="userSpaceOnUse">
<stop stop-color="#0F1145" stop-opacity="0"/>
<stop offset="1" stop-color="white" stop-opacity="0.07"/>
</linearGradient>
<linearGradient id="paint54_linear_3_9878" x1="669.337" y1="540.116" x2="669.337" y2="0.327842" gradientUnits="userSpaceOnUse">
<stop stop-color="#0F1145" stop-opacity="0"/>
<stop offset="1" stop-color="white" stop-opacity="0.07"/>
</linearGradient>
<linearGradient id="paint55_linear_3_9878" x1="669.346" y1="9.7403" x2="669.346" y2="1.41717" gradientUnits="userSpaceOnUse">
<stop stop-color="#0F1145" stop-opacity="0"/>
<stop offset="1" stop-color="white" stop-opacity="0.07"/>
</linearGradient>
<linearGradient id="paint56_linear_3_9878" x1="728.907" y1="486.337" x2="728.907" y2="55.1548" gradientUnits="userSpaceOnUse">
<stop stop-color="#0F1145" stop-opacity="0"/>
<stop offset="1" stop-color="white" stop-opacity="0.07"/>
</linearGradient>
<linearGradient id="paint57_linear_3_9878" x1="728.917" y1="63.5106" x2="728.917" y2="55.1874" gradientUnits="userSpaceOnUse">
<stop stop-color="#0F1145" stop-opacity="0"/>
<stop offset="1" stop-color="white" stop-opacity="0.07"/>
</linearGradient>
<linearGradient id="paint58_linear_3_9878" x1="784.1" y1="492.795" x2="784.1" y2="48.5755" gradientUnits="userSpaceOnUse">
<stop stop-color="#0F1145" stop-opacity="0"/>
<stop offset="1" stop-color="white" stop-opacity="0.07"/>
</linearGradient>
<linearGradient id="paint59_linear_3_9878" x1="784.11" y1="57.0535" x2="784.11" y2="48.7304" gradientUnits="userSpaceOnUse">
<stop stop-color="#0F1145" stop-opacity="0"/>
<stop offset="1" stop-color="white" stop-opacity="0.07"/>
</linearGradient>
<linearGradient id="paint60_linear_3_9878" x1="815.217" y1="514.321" x2="815.217" y2="26.5711" gradientUnits="userSpaceOnUse">
<stop stop-color="#0F1145" stop-opacity="0"/>
<stop offset="1" stop-color="white" stop-opacity="0.07"/>
</linearGradient>
<linearGradient id="paint61_linear_3_9878" x1="815.263" y1="35.4947" x2="815.263" y2="27.1716" gradientUnits="userSpaceOnUse">
<stop stop-color="#0F1145" stop-opacity="0"/>
<stop offset="1" stop-color="white" stop-opacity="0.07"/>
</linearGradient>
<linearGradient id="paint62_linear_3_9878" x1="744.593" y1="526.179" x2="744.593" y2="14.4905" gradientUnits="userSpaceOnUse">
<stop stop-color="#0F1145" stop-opacity="0"/>
<stop offset="1" stop-color="white" stop-opacity="0.07"/>
</linearGradient>
<linearGradient id="paint63_linear_3_9878" x1="744.603" y1="23.639" x2="744.603" y2="15.3159" gradientUnits="userSpaceOnUse">
<stop stop-color="#0F1145" stop-opacity="0"/>
<stop offset="1" stop-color="white" stop-opacity="0.07"/>
</linearGradient>
<linearGradient id="paint64_linear_3_9878" x1="816.639" y1="434.309" x2="816.639" y2="108.087" gradientUnits="userSpaceOnUse">
<stop stop-color="#0F1145" stop-opacity="0"/>
<stop offset="1" stop-color="white" stop-opacity="0.07"/>
</linearGradient>
<linearGradient id="paint65_linear_3_9878" x1="816.685" y1="115.493" x2="816.685" y2="107.17" gradientUnits="userSpaceOnUse">
<stop stop-color="#0F1145" stop-opacity="0"/>
<stop offset="1" stop-color="white" stop-opacity="0.07"/>
</linearGradient>
<linearGradient id="paint66_linear_3_9878" x1="805.769" y1="463.79" x2="805.769" y2="78.0904" gradientUnits="userSpaceOnUse">
<stop stop-color="#0F1145" stop-opacity="0"/>
<stop offset="1" stop-color="white" stop-opacity="0.07"/>
</linearGradient>
<linearGradient id="paint67_linear_3_9878" x1="805.815" y1="86.0552" x2="805.815" y2="77.7321" gradientUnits="userSpaceOnUse">
<stop stop-color="#0F1145" stop-opacity="0"/>
<stop offset="1" stop-color="white" stop-opacity="0.07"/>
</linearGradient>
<linearGradient id="paint68_linear_3_9878" x1="879.383" y1="527.711" x2="879.383" y2="12.9297" gradientUnits="userSpaceOnUse">
<stop stop-color="#0F1145" stop-opacity="0"/>
<stop offset="1" stop-color="white" stop-opacity="0.07"/>
</linearGradient>
<linearGradient id="paint69_linear_3_9878" x1="879.43" y1="22.1072" x2="879.43" y2="13.7841" gradientUnits="userSpaceOnUse">
<stop stop-color="#0F1145" stop-opacity="0"/>
<stop offset="1" stop-color="white" stop-opacity="0.07"/>
</linearGradient>
<linearGradient id="paint70_linear_3_9878" x1="843.196" y1="430.151" x2="843.196" y2="112.399" gradientUnits="userSpaceOnUse">
<stop stop-color="#0F1145" stop-opacity="0"/>
<stop offset="1" stop-color="white" stop-opacity="0.07"/>
</linearGradient>
<linearGradient id="paint71_linear_3_9878" x1="843.206" y1="119.689" x2="843.206" y2="111.366" gradientUnits="userSpaceOnUse">
<stop stop-color="#0F1145" stop-opacity="0"/>
<stop offset="1" stop-color="white" stop-opacity="0.07"/>
</linearGradient>
<linearGradient id="paint72_linear_3_9878" x1="907.801" y1="466.088" x2="907.801" y2="75.748" gradientUnits="userSpaceOnUse">
<stop stop-color="#0F1145" stop-opacity="0"/>
<stop offset="1" stop-color="white" stop-opacity="0.07"/>
</linearGradient>
<linearGradient id="paint73_linear_3_9878" x1="907.81" y1="83.7566" x2="907.81" y2="75.4335" gradientUnits="userSpaceOnUse">
<stop stop-color="#0F1145" stop-opacity="0"/>
<stop offset="1" stop-color="white" stop-opacity="0.07"/>
</linearGradient>
<linearGradient id="paint74_linear_3_9878" x1="914.878" y1="459.229" x2="914.878" y2="82.7734" gradientUnits="userSpaceOnUse">
<stop stop-color="#0F1145" stop-opacity="0"/>
<stop offset="1" stop-color="white" stop-opacity="0.07"/>
</linearGradient>
<linearGradient id="paint75_linear_3_9878" x1="914.924" y1="90.615" x2="914.924" y2="82.2919" gradientUnits="userSpaceOnUse">
<stop stop-color="#0F1145" stop-opacity="0"/>
<stop offset="1" stop-color="white" stop-opacity="0.07"/>
</linearGradient>
<linearGradient id="paint76_linear_3_9878" x1="990.937" y1="509.578" x2="990.937" y2="31.4405" gradientUnits="userSpaceOnUse">
<stop stop-color="#0F1145" stop-opacity="0"/>
<stop offset="1" stop-color="white" stop-opacity="0.07"/>
</linearGradient>
<linearGradient id="paint77_linear_3_9878" x1="990.946" y1="40.2737" x2="990.946" y2="31.9506" gradientUnits="userSpaceOnUse">
<stop stop-color="#0F1145" stop-opacity="0"/>
<stop offset="1" stop-color="white" stop-opacity="0.07"/>
</linearGradient>
<linearGradient id="paint78_linear_3_9878" x1="945.411" y1="538.182" x2="945.411" y2="2.33483" gradientUnits="userSpaceOnUse">
<stop stop-color="#0F1145" stop-opacity="0"/>
<stop offset="1" stop-color="white" stop-opacity="0.07"/>
</linearGradient>
<linearGradient id="paint79_linear_3_9878" x1="945.42" y1="11.6739" x2="945.42" y2="3.35076" gradientUnits="userSpaceOnUse">
<stop stop-color="#0F1145" stop-opacity="0"/>
<stop offset="1" stop-color="white" stop-opacity="0.07"/>
</linearGradient>
<linearGradient id="paint80_linear_3_9878" x1="987.289" y1="530.739" x2="987.289" y2="9.88092" gradientUnits="userSpaceOnUse">
<stop stop-color="#0F1145" stop-opacity="0"/>
<stop offset="1" stop-color="white" stop-opacity="0.07"/>
</linearGradient>
<linearGradient id="paint81_linear_3_9878" x1="987.298" y1="19.1155" x2="987.298" y2="10.7924" gradientUnits="userSpaceOnUse">
<stop stop-color="#0F1145" stop-opacity="0"/>
<stop offset="1" stop-color="white" stop-opacity="0.07"/>
</linearGradient>
<linearGradient id="paint82_linear_3_9878" x1="1091.58" y1="499.107" x2="1091.58" y2="42.1081" gradientUnits="userSpaceOnUse">
<stop stop-color="#0F1145" stop-opacity="0"/>
<stop offset="1" stop-color="white" stop-opacity="0.07"/>
</linearGradient>
<linearGradient id="paint83_linear_3_9878" x1="1091.59" y1="50.7427" x2="1091.59" y2="42.4196" gradientUnits="userSpaceOnUse">
<stop stop-color="#0F1145" stop-opacity="0"/>
<stop offset="1" stop-color="white" stop-opacity="0.07"/>
</linearGradient>
<linearGradient id="paint84_linear_3_9878" x1="1087.13" y1="463.863" x2="1087.13" y2="78.0158" gradientUnits="userSpaceOnUse">
<stop stop-color="#0F1145" stop-opacity="0"/>
<stop offset="1" stop-color="white" stop-opacity="0.07"/>
</linearGradient>
<linearGradient id="paint85_linear_3_9878" x1="1087.18" y1="85.9822" x2="1087.18" y2="77.6591" gradientUnits="userSpaceOnUse">
<stop stop-color="#0F1145" stop-opacity="0"/>
<stop offset="1" stop-color="white" stop-opacity="0.07"/>
</linearGradient>
<linearGradient id="paint86_linear_3_9878" x1="1144.33" y1="456.31" x2="1144.33" y2="85.7095" gradientUnits="userSpaceOnUse">
<stop stop-color="#0F1145" stop-opacity="0"/>
<stop offset="1" stop-color="white" stop-opacity="0.07"/>
</linearGradient>
<linearGradient id="paint87_linear_3_9878" x1="1144.34" y1="93.5328" x2="1144.34" y2="85.2096" gradientUnits="userSpaceOnUse">
<stop stop-color="#0F1145" stop-opacity="0"/>
<stop offset="1" stop-color="white" stop-opacity="0.07"/>
</linearGradient>
<linearGradient id="paint88_linear_3_9878" x1="1090.63" y1="499.909" x2="1090.63" y2="41.2903" gradientUnits="userSpaceOnUse">
<stop stop-color="#0F1145" stop-opacity="0"/>
<stop offset="1" stop-color="white" stop-opacity="0.07"/>
</linearGradient>
<linearGradient id="paint89_linear_3_9878" x1="1090.64" y1="49.9402" x2="1090.64" y2="41.6171" gradientUnits="userSpaceOnUse">
<stop stop-color="#0F1145" stop-opacity="0"/>
<stop offset="1" stop-color="white" stop-opacity="0.07"/>
</linearGradient>
<linearGradient id="paint90_linear_3_9878" x1="1111.79" y1="488.417" x2="1111.79" y2="52.963" gradientUnits="userSpaceOnUse">
<stop stop-color="#0F1145" stop-opacity="0"/>
<stop offset="1" stop-color="white" stop-opacity="0.07"/>
</linearGradient>
<linearGradient id="paint91_linear_3_9878" x1="1111.8" y1="61.3953" x2="1111.8" y2="53.0722" gradientUnits="userSpaceOnUse">
<stop stop-color="#0F1145" stop-opacity="0"/>
<stop offset="1" stop-color="white" stop-opacity="0.07"/>
</linearGradient>
<linearGradient id="paint92_linear_3_9878" x1="1167.9" y1="464.191" x2="1167.9" y2="77.7179" gradientUnits="userSpaceOnUse">
<stop stop-color="#0F1145" stop-opacity="0"/>
<stop offset="1" stop-color="white" stop-opacity="0.07"/>
</linearGradient>
<linearGradient id="paint93_linear_3_9878" x1="1167.91" y1="85.6536" x2="1167.91" y2="77.3305" gradientUnits="userSpaceOnUse">
<stop stop-color="#0F1145" stop-opacity="0"/>
<stop offset="1" stop-color="white" stop-opacity="0.07"/>
</linearGradient>
<linearGradient id="paint94_linear_3_9878" x1="1147.58" y1="468.933" x2="1147.58" y2="72.8483" gradientUnits="userSpaceOnUse">
<stop stop-color="#0F1145" stop-opacity="0"/>
<stop offset="1" stop-color="white" stop-opacity="0.07"/>
</linearGradient>
<linearGradient id="paint95_linear_3_9878" x1="1147.59" y1="80.9109" x2="1147.59" y2="72.5878" gradientUnits="userSpaceOnUse">
<stop stop-color="#0F1145" stop-opacity="0"/>
<stop offset="1" stop-color="white" stop-opacity="0.07"/>
</linearGradient>
<linearGradient id="paint96_linear_3_9878" x1="1171.58" y1="537.745" x2="1171.58" y2="2.7444" gradientUnits="userSpaceOnUse">
<stop stop-color="#0F1145" stop-opacity="0"/>
<stop offset="1" stop-color="white" stop-opacity="0.07"/>
</linearGradient>
<linearGradient id="paint97_linear_3_9878" x1="1171.59" y1="12.1119" x2="1171.59" y2="3.78875" gradientUnits="userSpaceOnUse">
<stop stop-color="#0F1145" stop-opacity="0"/>
<stop offset="1" stop-color="white" stop-opacity="0.07"/>
</linearGradient>
<linearGradient id="paint98_linear_3_9878" x1="1231.04" y1="441.643" x2="1231.04" y2="100.689" gradientUnits="userSpaceOnUse">
<stop stop-color="#0F1145" stop-opacity="0"/>
<stop offset="1" stop-color="white" stop-opacity="0.07"/>
</linearGradient>
<linearGradient id="paint99_linear_3_9878" x1="1231.05" y1="108.197" x2="1231.05" y2="99.8742" gradientUnits="userSpaceOnUse">
<stop stop-color="#0F1145" stop-opacity="0"/>
<stop offset="1" stop-color="white" stop-opacity="0.07"/>
</linearGradient>
<linearGradient id="paint100_linear_3_9878" x1="1302.91" y1="432.522" x2="1302.91" y2="109.945" gradientUnits="userSpaceOnUse">
<stop stop-color="#0F1145" stop-opacity="0"/>
<stop offset="1" stop-color="white" stop-opacity="0.07"/>
</linearGradient>
<linearGradient id="paint101_linear_3_9878" x1="1302.95" y1="117.317" x2="1302.95" y2="108.994" gradientUnits="userSpaceOnUse">
<stop stop-color="#0F1145" stop-opacity="0"/>
<stop offset="1" stop-color="white" stop-opacity="0.07"/>
</linearGradient>
<linearGradient id="paint102_linear_3_9878" x1="1310.02" y1="526.69" x2="1310.02" y2="14.0073" gradientUnits="userSpaceOnUse">
<stop stop-color="#0F1145" stop-opacity="0"/>
<stop offset="1" stop-color="white" stop-opacity="0.07"/>
</linearGradient>
<linearGradient id="paint103_linear_3_9878" x1="1310.03" y1="23.1653" x2="1310.03" y2="14.8422" gradientUnits="userSpaceOnUse">
<stop stop-color="#0F1145" stop-opacity="0"/>
<stop offset="1" stop-color="white" stop-opacity="0.07"/>
</linearGradient>
<linearGradient id="paint104_linear_3_9878" x1="1272.01" y1="446.058" x2="1272.01" y2="96.118" gradientUnits="userSpaceOnUse">
<stop stop-color="#0F1145" stop-opacity="0"/>
<stop offset="1" stop-color="white" stop-opacity="0.07"/>
</linearGradient>
<linearGradient id="paint105_linear_3_9878" x1="1272.02" y1="103.747" x2="1272.02" y2="95.424" gradientUnits="userSpaceOnUse">
<stop stop-color="#0F1145" stop-opacity="0"/>
<stop offset="1" stop-color="white" stop-opacity="0.07"/>
</linearGradient>
<linearGradient id="paint106_linear_3_9878" x1="1340.55" y1="510.636" x2="1340.55" y2="30.3623" gradientUnits="userSpaceOnUse">
<stop stop-color="#0F1145" stop-opacity="0"/>
<stop offset="1" stop-color="white" stop-opacity="0.07"/>
</linearGradient>
<linearGradient id="paint107_linear_3_9878" x1="1340.6" y1="39.2156" x2="1340.6" y2="30.8925" gradientUnits="userSpaceOnUse">
<stop stop-color="#0F1145" stop-opacity="0"/>
<stop offset="1" stop-color="white" stop-opacity="0.07"/>
</linearGradient>
<linearGradient id="paint108_linear_3_9878" x1="1367.95" y1="530.739" x2="1367.95" y2="9.88092" gradientUnits="userSpaceOnUse">
<stop stop-color="#0F1145" stop-opacity="0"/>
<stop offset="1" stop-color="white" stop-opacity="0.07"/>
</linearGradient>
<linearGradient id="paint109_linear_3_9878" x1="1367.96" y1="19.1155" x2="1367.96" y2="10.7924" gradientUnits="userSpaceOnUse">
<stop stop-color="#0F1145" stop-opacity="0"/>
<stop offset="1" stop-color="white" stop-opacity="0.07"/>
</linearGradient>
<linearGradient id="paint110_linear_3_9878" x1="1357.52" y1="471.123" x2="1357.52" y2="70.5821" gradientUnits="userSpaceOnUse">
<stop stop-color="#0F1145" stop-opacity="0"/>
<stop offset="1" stop-color="white" stop-opacity="0.07"/>
</linearGradient>
<linearGradient id="paint111_linear_3_9878" x1="1357.56" y1="78.6863" x2="1357.56" y2="70.3632" gradientUnits="userSpaceOnUse">
<stop stop-color="#0F1145" stop-opacity="0"/>
<stop offset="1" stop-color="white" stop-opacity="0.07"/>
</linearGradient>
<linearGradient id="paint112_linear_3_9878" x1="1365.65" y1="459.046" x2="1365.65" y2="82.9218" gradientUnits="userSpaceOnUse">
<stop stop-color="#0F1145" stop-opacity="0"/>
<stop offset="1" stop-color="white" stop-opacity="0.07"/>
</linearGradient>
<linearGradient id="paint113_linear_3_9878" x1="1365.66" y1="90.7967" x2="1365.66" y2="82.4736" gradientUnits="userSpaceOnUse">
<stop stop-color="#0F1145" stop-opacity="0"/>
<stop offset="1" stop-color="white" stop-opacity="0.07"/>
</linearGradient>
<linearGradient id="paint114_linear_3_9878" x1="1442.67" y1="24.3685" x2="1442.67" y2="16.0453" gradientUnits="userSpaceOnUse">
<stop stop-color="#0F1145" stop-opacity="0"/>
<stop offset="1" stop-color="white" stop-opacity="0.07"/>
</linearGradient>
</defs>
</svg>
